<svg width="115" height="115" viewBox="0 0 115 115" fill="none" xmlns="http://www.w3.org/2000/svg">
<path d="M92.6512 86.3511C92.2806 86.25 91.8314 86.3062 91.3148 86.4971C84.3968 89.6641 77.6698 91.9214 71.1337 93.2578C57.017 96.1328 43.2597 94.628 29.8729 88.7544C26.1557 87.1148 20.9897 84.3521 14.3749 80.4439C14.2045 80.3093 13.9965 80.2309 13.7797 80.2193C13.5551 80.208 13.3642 80.2305 13.1845 80.3203C13.0048 80.4102 12.87 80.5225 12.769 80.6685C12.6679 80.8145 12.6454 81.0166 12.724 81.2749C12.7914 81.522 12.9599 81.8028 13.2406 82.106C14.4086 83.4761 15.8573 84.9361 17.5756 86.4859C19.2939 88.0357 21.5736 89.7876 24.4149 91.7417C27.2562 93.6958 30.2323 95.4365 33.3207 96.9527C36.4203 98.4688 40.0141 99.7491 44.1132 100.782C48.2123 101.815 52.3114 102.332 56.3993 102.332C60.4647 102.332 64.4179 101.917 68.2474 101.108C72.0883 100.288 75.3226 99.3223 77.9618 98.1992C80.5897 97.0874 83.0155 95.8408 85.2391 94.4932C87.4628 93.1455 89.1024 92 90.1693 91.0904C91.2362 90.1695 91.9999 89.4507 92.4379 88.9116C92.9545 88.2715 93.2128 87.7212 93.2128 87.2383C93.224 86.7329 93.0218 86.4409 92.6512 86.3511V86.3511ZM59.2294 39.0933C57.5224 39.2393 55.4672 39.5537 53.0526 40.0254C50.6381 40.4858 48.4032 41.0698 46.3368 41.7549C44.2704 42.4399 42.1591 43.3945 40.0141 44.6074C37.8578 45.8203 36.0272 47.2129 34.5111 48.7627C32.995 50.3125 31.7597 52.2554 30.7938 54.6026C29.828 56.9385 29.3451 59.5103 29.3451 62.3179C29.3451 65.3613 29.8729 68.0679 30.9511 70.46C32.018 72.8521 33.4442 74.7276 35.2411 76.1201C37.0267 77.5127 39.0595 78.6021 41.3056 79.3994C43.5516 80.1968 45.9325 80.5562 48.4032 80.4551C50.8739 80.354 53.2885 79.9722 55.6356 79.2984C57.9716 78.6358 60.1727 77.5689 62.2167 76.1201C64.2606 74.6714 65.934 72.9531 67.2479 70.9878C67.7308 71.729 68.1576 72.2793 68.5394 72.6387L69.5165 73.6382C70.1678 74.3008 71.1674 75.2779 72.515 76.5694C73.8514 77.8609 75.2216 79.1187 76.5917 80.354L88.3163 69.1348L87.6424 68.5845C87.1595 68.2139 86.5868 67.6861 85.9354 66.9785C85.284 66.2822 84.6327 65.5073 84.0038 64.6763C83.3636 63.8452 82.8133 62.8682 82.3529 61.7676C81.8924 60.667 81.6566 59.6001 81.6566 58.5669V29.0532C81.6566 27.919 81.4432 26.6948 81.0165 25.3696C80.5785 24.0557 79.8148 22.6182 78.6918 21.0684C77.5687 19.5186 76.1761 18.126 74.514 16.9131C72.8407 15.7002 70.6171 14.667 67.8207 13.8359C65.0355 13.0049 61.9135 12.5894 58.4769 12.5894C54.9618 12.5894 51.6937 13.0049 48.6391 13.8135C45.5956 14.6333 42.9901 15.7227 40.8114 17.0928C38.6439 18.4629 36.7797 20.0464 35.2299 21.8545C33.6801 23.6626 32.5233 25.5493 31.7709 27.5147C31.0185 29.48 30.6366 31.4678 30.6366 33.478L45.8202 34.8145C46.4379 32.9727 47.2689 31.3779 48.2909 30.0078C49.3241 28.6377 50.3012 27.6494 51.1884 27.0317C52.0868 26.4141 53.0526 25.9199 54.0746 25.5493C55.1078 25.1787 55.8041 24.9878 56.1635 24.9429C56.5228 24.9092 56.8036 24.898 57.017 24.898C60.0155 24.898 62.0931 25.7852 63.2611 27.5483C63.9911 28.6152 64.3505 30.2324 64.3505 32.4111V38.7676C62.6434 38.835 60.9364 38.9473 59.2294 39.0933V39.0933ZM64.3617 56.1524C64.3617 58.0166 64.1146 59.7124 63.6317 61.2061C62.5985 64.4741 60.6332 66.5293 57.747 67.3604C55.2313 68.1016 52.8392 67.731 50.5707 66.2598C48.1561 64.6875 46.9545 62.4639 46.9545 59.6001C46.9545 57.3652 47.516 55.4561 48.6391 53.8613C49.7621 52.2778 51.2557 51.0874 53.1312 50.3013C55.0067 49.5151 56.8373 48.9536 58.6342 48.6279C60.4198 48.291 62.3402 48.0889 64.3617 48.0215V56.1524V56.1524ZM102.006 80.7359C101.523 80.1294 100.221 79.7364 98.0868 79.5342C95.953 79.3321 94.1 79.3433 92.5052 79.5791C90.787 79.7813 89.0126 80.2754 87.1932 81.084C85.3627 81.8814 84.5653 82.5552 84.7674 83.083L84.8461 83.229L84.9471 83.3076L85.1044 83.3301H85.621C85.7108 83.3301 85.8231 83.3189 85.9803 83.3076C86.1376 83.2964 86.2836 83.274 86.4183 83.2627C86.5531 83.2515 86.744 83.229 86.9911 83.2178C87.2269 83.2066 87.4515 83.1729 87.6649 83.1392C87.6986 83.1392 88.0804 83.1055 88.8216 83.0381C89.5629 82.9707 90.1019 82.9258 90.4276 82.8921C90.7533 82.8584 91.3036 82.8247 92.056 82.791C92.8085 82.7573 93.4149 82.7573 93.8641 82.791C94.3133 82.8247 94.8187 82.8696 95.3915 82.9146C95.9642 82.9595 96.4247 83.0606 96.784 83.2178C97.1434 83.3638 97.413 83.5547 97.5814 83.7905C98.1654 84.5318 98.0531 86.1714 97.2445 88.7207C96.4359 91.27 95.6722 93.3028 94.9535 94.8076C94.639 95.4478 94.639 95.8408 94.9535 96.0093C95.2679 96.1778 95.7059 96.0205 96.2899 95.5601C98.0419 94.19 99.5018 92.1236 100.681 89.3496C101.366 87.71 101.86 86.003 102.152 84.2173C102.422 82.4317 102.377 81.2749 102.006 80.7359V80.7359Z" fill="#242635"/>
</svg>
