<svg width="116" height="116" viewBox="0 0 116 116" fill="none" xmlns="http://www.w3.org/2000/svg">
<path d="M103.625 48.6594C104.215 51.8171 104.536 55.1185 104.536 58.5637C104.536 85.5121 86.4998 104.674 59.2591 104.674C53.0643 104.676 46.9297 103.457 41.206 101.087C35.4824 98.7174 30.2817 95.2431 25.9013 90.8626C21.5208 86.4822 18.0465 81.2815 15.6767 75.5579C13.3069 69.8342 12.0881 63.6997 12.09 57.5048C12.0881 51.3099 13.3069 45.1754 15.6767 39.4517C18.0465 33.728 21.5208 28.5274 25.9013 24.1469C30.2817 19.7665 35.4824 16.2921 41.206 13.9223C46.9297 11.5525 53.0643 10.3337 59.2591 10.3356C71.9954 10.3356 82.6377 15.0219 90.8027 22.631L77.5058 35.9279V35.8944C72.556 31.1794 66.2741 28.7596 59.2591 28.7596C43.6958 28.7596 31.0458 41.9079 31.0458 57.476C31.0458 73.0394 43.6958 86.2164 59.2591 86.2164C73.3802 86.2164 82.9923 78.1425 84.9664 67.0546H59.2591V48.6594H103.63H103.625Z" fill="#242635"/>
</svg>
