<svg width="24" height="24" viewBox="0 0 24 24" fill="none" xmlns="http://www.w3.org/2000/svg">
<path d="M12.0001 8.87578C10.2798 8.87578 8.8759 10.2797 8.8759 12C8.8759 13.7203 10.2798 15.1242 12.0001 15.1242C13.7204 15.1242 15.1243 13.7203 15.1243 12C15.1243 10.2797 13.7204 8.87578 12.0001 8.87578ZM21.3704 12C21.3704 10.7062 21.3822 9.42422 21.3095 8.13281C21.2368 6.63281 20.8947 5.30156 19.7978 4.20469C18.6986 3.10547 17.3697 2.76563 15.8697 2.69297C14.5759 2.62031 13.2939 2.63203 12.0025 2.63203C10.7087 2.63203 9.42668 2.62031 8.13527 2.69297C6.63527 2.76563 5.30402 3.10781 4.20714 4.20469C3.10792 5.30391 2.76808 6.63281 2.69542 8.13281C2.62277 9.42656 2.63449 10.7086 2.63449 12C2.63449 13.2914 2.62277 14.5758 2.69542 15.8672C2.76808 17.3672 3.11027 18.6984 4.20714 19.7953C5.30636 20.8945 6.63527 21.2344 8.13527 21.307C9.42902 21.3797 10.7111 21.368 12.0025 21.368C13.2962 21.368 14.5782 21.3797 15.8697 21.307C17.3697 21.2344 18.7009 20.8922 19.7978 19.7953C20.897 18.6961 21.2368 17.3672 21.3095 15.8672C21.3845 14.5758 21.3704 13.2937 21.3704 12V12ZM12.0001 16.807C9.33996 16.807 7.19308 14.6602 7.19308 12C7.19308 9.33984 9.33996 7.19297 12.0001 7.19297C14.6603 7.19297 16.8072 9.33984 16.8072 12C16.8072 14.6602 14.6603 16.807 12.0001 16.807ZM17.004 8.11875C16.3829 8.11875 15.8814 7.61719 15.8814 6.99609C15.8814 6.375 16.3829 5.87344 17.004 5.87344C17.6251 5.87344 18.1267 6.375 18.1267 6.99609C18.1269 7.14357 18.098 7.28964 18.0416 7.42593C17.9853 7.56222 17.9026 7.68606 17.7983 7.79034C17.694 7.89463 17.5702 7.97732 17.4339 8.03367C17.2976 8.09002 17.1515 8.11893 17.004 8.11875V8.11875Z" fill="#242635"/>
</svg>
