<svg width="110" height="111" viewBox="0 0 110 111" fill="none" xmlns="http://www.w3.org/2000/svg">
<path d="M55.0001 9.22222C29.6863 9.22222 9.16675 29.8662 9.16675 55.3333C9.16675 80.8005 29.6863 101.444 55.0001 101.444C80.3138 101.444 100.833 80.8005 100.833 55.3333C100.833 29.8662 80.3138 9.22222 55.0001 9.22222Z" fill="white" stroke="#34B0BE" stroke-width="7" stroke-linecap="round" stroke-linejoin="round"/>
<path d="M36.6667 97.608V64.5556L55.0001 32.2778L73.3334 64.5556V97.608" fill="#34B0BE"/>
<path d="M36.6667 97.608V64.5556L55.0001 32.2778L73.3334 64.5556V97.608" stroke="#34B0BE" stroke-width="7" stroke-linecap="round" stroke-linejoin="round"/>
<path d="M36.6667 64.5555C36.6667 64.5555 41.8322 69.1667 45.8334 69.1667C49.8347 69.1667 55.0001 64.5555 55.0001 64.5555C55.0001 64.5555 60.1655 69.1667 64.1667 69.1667C68.168 69.1667 73.3334 64.5555 73.3334 64.5555" fill="#34B0BE"/>
<path d="M36.6667 64.5555C36.6667 64.5555 41.8322 69.1667 45.8334 69.1667C49.8347 69.1667 55.0001 64.5555 55.0001 64.5555C55.0001 64.5555 60.1655 69.1667 64.1667 69.1667C68.168 69.1667 73.3334 64.5555 73.3334 64.5555" stroke="white" stroke-width="7" stroke-linecap="round" stroke-linejoin="round"/>
</svg>
