<svg width="110" height="110" viewBox="0 0 110 110" fill="none" xmlns="http://www.w3.org/2000/svg">
<path d="M82.5367 13.6904C88.6417 10.1979 96.25 14.6071 96.25 21.6471V79.1863C96.25 86.2217 88.6463 90.6354 82.5367 87.1429L58.3642 73.3333H50.4167V89.375C50.4167 92.414 49.2095 95.3284 47.0606 97.4773C44.9118 99.6261 41.9973 100.833 38.9584 100.833C35.9194 100.833 33.005 99.6261 30.8561 97.4773C28.7073 95.3284 27.5 92.414 27.5 89.375V72.875C21.948 71.7249 17.0191 68.5583 13.6653 63.9867C10.3115 59.4151 8.77067 53.7629 9.34049 48.1217C9.9103 42.4805 12.5503 37.2506 16.7506 33.4421C20.9509 29.6335 26.4135 27.5165 32.0834 27.5H58.3642L82.5367 13.6904ZM55.0001 36.6667H32.0834C28.4367 36.6667 24.9393 38.1153 22.3607 40.694C19.782 43.2726 18.3334 46.7699 18.3334 50.4167C18.3334 54.0634 19.782 57.5608 22.3607 60.1394C24.9393 62.718 28.4367 64.1667 32.0834 64.1667H55.0001V36.6667ZM64.1667 66.0917L87.0834 79.1863V21.6471L64.1667 34.7417V66.0917ZM36.6667 73.3333V89.375C36.6667 89.9828 36.9082 90.5657 37.3379 90.9955C37.7677 91.4252 38.3506 91.6667 38.9584 91.6667C39.5662 91.6667 40.1491 91.4252 40.5788 90.9955C41.0086 90.5657 41.2501 89.9828 41.2501 89.375V73.3333H36.6667Z" fill="#34B0BE"/>
</svg>
