<svg width="115" height="115" viewBox="0 0 115 115" fill="none" xmlns="http://www.w3.org/2000/svg">
<path d="M57.5 0C42.2501 0 27.6247 6.05802 16.8414 16.8414C6.05802 27.6247 0 42.2501 0 57.5C0 72.7499 6.05802 87.3753 16.8414 98.1586C27.6247 108.942 42.2501 115 57.5 115C72.7499 115 87.3753 108.942 98.1586 98.1586C108.942 87.3753 115 72.7499 115 57.5C115 42.2501 108.942 27.6247 98.1586 16.8414C87.3753 6.05802 72.7499 0 57.5 0V0ZM83.8709 82.9294C83.6257 83.3317 83.3034 83.6815 82.9226 83.959C82.5418 84.2364 82.11 84.436 81.6519 84.5461C81.1938 84.6563 80.7185 84.675 80.2531 84.6011C79.7878 84.5271 79.3417 84.3621 78.9403 84.1153C65.435 75.8713 48.4438 74.0025 28.4266 78.5809C27.4992 78.7925 26.5257 78.6271 25.7203 78.1209C24.915 77.6148 24.3436 76.8094 24.132 75.882C23.9204 74.9546 24.0859 73.9812 24.5921 73.1758C25.0982 72.3704 25.9036 71.7991 26.8309 71.5875C48.7384 66.585 67.5266 68.7341 82.6778 77.9988C83.4885 78.4956 84.0692 79.2935 84.2929 80.2176C84.5165 81.1418 84.3648 82.1169 83.8709 82.9294V82.9294ZM90.9075 67.275C90.2848 68.2878 89.2855 69.012 88.1291 69.2883C86.9727 69.5646 85.7539 69.3704 84.7406 68.7484C69.2875 59.2537 45.7269 56.5009 27.4419 62.0497C26.3289 62.3142 25.157 62.1441 24.1652 61.5741C23.1733 61.0042 22.4363 60.0773 22.1044 58.9826C21.7725 57.8878 21.8707 56.7077 22.379 55.6829C22.8874 54.6582 23.7676 53.8659 24.84 53.4678C45.7197 47.1356 71.6809 50.2047 89.4269 61.1081C90.4409 61.7296 91.1666 62.7285 91.4442 63.885C91.7219 65.0414 91.5288 66.2608 90.9075 67.275V67.275ZM91.5113 50.9738C72.9819 39.9625 42.4062 38.9491 24.7106 44.3181C23.3458 44.7318 21.8725 44.5863 20.6149 43.9137C19.3572 43.2411 18.4183 42.0964 18.0047 40.7316C17.591 39.3667 17.7365 37.8934 18.4091 36.6358C19.0817 35.3782 20.2264 34.4393 21.5912 34.0256C41.8959 27.8659 75.6628 29.0519 97.0025 41.7162C98.2301 42.4444 99.1182 43.6305 99.4713 45.0134C99.8245 46.3964 99.6138 47.863 98.8856 49.0906C98.1574 50.3182 96.9714 51.2063 95.5884 51.5595C94.2055 51.9126 92.7389 51.7019 91.5113 50.9738V50.9738Z" fill="#242635"/>
</svg>
