<svg width="24" height="24" viewBox="0 0 24 24" fill="none" xmlns="http://www.w3.org/2000/svg">
<path d="M21.7499 5.96016C21.0327 6.26953 20.2522 6.49219 19.4483 6.57891C20.283 6.08305 20.908 5.29969 21.2061 4.37578C20.4229 4.84169 19.5649 5.1684 18.6702 5.34141C18.2962 4.94162 17.844 4.62314 17.3415 4.4058C16.8391 4.18846 16.2973 4.07692 15.7499 4.07813C13.535 4.07813 11.7538 5.87344 11.7538 8.07656C11.7538 8.38594 11.7913 8.69532 11.8522 8.99297C8.53583 8.81953 5.57802 7.23516 3.61162 4.80938C3.25332 5.42137 3.06556 6.11819 3.06787 6.82735C3.06787 8.21485 3.77334 9.43828 4.84912 10.1578C4.21515 10.1328 3.59602 9.95859 3.04209 9.64922V9.69844C3.04209 11.6414 4.41553 13.2516 6.24599 13.6219C5.9023 13.7112 5.54874 13.7568 5.19365 13.7578C4.93349 13.7578 4.6874 13.732 4.43896 13.6969C4.94521 15.2813 6.41943 16.432 8.1749 16.4695C6.80146 17.5453 5.08115 18.1781 3.21318 18.1781C2.87803 18.1781 2.56865 18.1664 2.24756 18.1289C4.01943 19.2656 6.12177 19.9219 8.38583 19.9219C15.7358 19.9219 19.7577 13.8328 19.7577 8.54766C19.7577 8.37422 19.7577 8.20078 19.746 8.02735C20.5241 7.45781 21.2061 6.75235 21.7499 5.96016Z" fill="#242635"/>
</svg>
